<?xml version="1.0" encoding="iso-8859-1"?>
<!-- Generator: Adobe Illustrator 16.0.0, SVG Export Plug-In . SVG Version: 6.00 Build 0)  -->
<!DOCTYPE svg PUBLIC "-//W3C//DTD SVG 1.1//EN" "http://www.w3.org/Graphics/SVG/1.1/DTD/svg11.dtd">
<svg version="1.1" id="Capa_1" xmlns="http://www.w3.org/2000/svg" xmlns:xlink="http://www.w3.org/1999/xlink" x="0px" y="0px"
	 width="612.021px" height="612.021px" viewBox="0 0 612.021 612.021" style="enable-background:new 0 0 612.021 612.021;"
	 xml:space="preserve">
<g>
	<g id="_x38__37_">
		<g>
			<path d="M590.927,517.491H337.79c-11.645,0-21.095,9.45-21.095,21.116c0,11.665,9.45,21.115,21.095,21.115l253.137-0.611
				c11.645,0,21.095-8.839,21.095-20.504C612.021,526.941,602.592,517.491,590.927,517.491z M295.601,52.88l295.326-0.042
				c11.645,0,21.095-9.408,21.095-21.074s-9.45-21.116-21.095-21.116H295.601c-11.645,0-21.095,9.45-21.095,21.116
				S283.956,52.88,295.601,52.88z M331.188,396.745c-8.27-8.312-21.686-8.312-29.955,0L190.127,524.6V10.648h-42.189v514.711
				L36.156,396.745c-8.269-8.312-21.686-8.312-29.954,0c-8.27,8.312-8.27,21.77,0,30.06l146.439,168.526
				c4.409,4.43,10.273,6.307,16.032,6.012c5.779,0.295,11.623-1.582,16.031-6.012l146.44-168.526
				C339.457,418.515,339.457,405.057,331.188,396.745z M590.927,137.364H295.601c-11.645,0-21.095,9.451-21.095,21.116
				c0,11.666,9.45,20.926,21.095,20.926h295.326c11.645,0,21.095-9.261,21.095-20.926
				C612.021,146.815,602.592,137.364,590.927,137.364z M590.927,264.059H295.601c-11.645,0-21.095,9.451-21.095,21.116
				c0,11.666,9.45,20.778,21.095,20.778l295.326,0.338c11.645,0,21.095-9.451,21.095-21.116
				C612.021,273.531,602.592,264.059,590.927,264.059z M590.927,390.775H422.169c-11.645,0-21.095,9.45-21.095,21.115
				c0,11.666,9.45,20.652,21.095,20.652h168.758c11.645,0,21.095-8.986,21.095-20.652
				C612.021,400.226,602.592,390.775,590.927,390.775z"/>
		</g>
	</g>
</g>
<g>
</g>
<g>
</g>
<g>
</g>
<g>
</g>
<g>
</g>
<g>
</g>
<g>
</g>
<g>
</g>
<g>
</g>
<g>
</g>
<g>
</g>
<g>
</g>
<g>
</g>
<g>
</g>
<g>
</g>
</svg>
